<svg aria-hidden="true" style="position: absolute; width: 0; height: 0; overflow: hidden;" version="1.1" xmlns="http://www.w3.org/2000/svg" xmlns:xlink="http://www.w3.org/1999/xlink">
<defs>
<symbol id="icon-brand" viewBox="0 0 32 32">
<title>brand</title>
<path fill="#28191e" style="fill: var(--background-color, #28191e)" d="M32 11.343c0-6.261-5.083-11.343-11.343-11.343h-9.313c-6.261 0-11.343 5.083-11.343 11.343v9.313c0 6.261 5.083 11.343 11.343 11.343h9.313c6.261 0 11.343-5.083 11.343-11.343v-9.313z"></path>
<path fill="#781f46" style="fill: var(--color2, #781f46)" d="M10.664 1.836c0.85-0.024 1.705 0.005 2.543 0.164 0.178 0.041 0.367 0.044 0.538 0.113 0.461 0.249 0.924 0.5 1.343 0.816 1.151 0.85 2.157 1.913 2.888 3.147 0.077-0.264 0.117-0.546 0.266-0.782 0.325-0.486 0.897-0.705 1.412-0.928-0.034-0.079-0.067-0.158-0.101-0.237 0.337 0.067 0.629 0.265 0.909 0.454 0.57 0.405 1.138 0.815 1.722 1.201 0.445 0.29 0.893 0.588 1.389 0.785 0.201 0.080 0.424 0.126 0.589 0.276 0.456 0.398 0.739 0.96 0.886 1.541 0.12 0.442 0.167 0.901 0.296 1.341 0.043 0.133 0.082 0.285 0.211 0.361 1.195 0.852 2.214 1.937 3.041 3.148 0.123 0.2 0.267 0.395 0.335 0.622-0.938-0.763-2.033-1.341-3.198-1.668-0.77-0.198-1.604-0.282-2.373-0.035-0.067 0.020-0.138 0.010-0.202-0.014-1.173-0.444-2.294-1.034-3.296-1.793-0.51-0.373-0.984-0.793-1.493-1.168-0.662-0.495-1.357-0.95-2.098-1.317-0.64-0.316-1.327-0.575-2.046-0.621 0.589 0.524 1.134 1.101 1.599 1.738-0.277 0.044-0.559 0.061-0.833 0.126-0.839 0.192-1.661 0.546-2.296 1.137 0.799-0.25 1.643-0.404 2.483-0.33 0.062 0.011 0.122 0.030 0.183 0.046-0.261 0.261-0.486 0.554-0.742 0.821-0.119 0.133-0.242 0.262-0.356 0.399 0.241 0.003 0.483-0.007 0.724-0.012 0.177 0 0.37-0.068 0.529 0.041-1.238 0.281-2.443 0.79-3.435 1.594-0.518 0.418-0.99 0.899-1.355 1.458-0.487 0.73-0.831 1.553-1.035 2.405-0.197 0.808-0.223 1.648-0.158 2.474 0.121 1.252 0.486 2.511 1.231 3.538 0.296 0.421 0.644 0.814 1.072 1.105-0.246-0.392-0.437-0.838-0.439-1.308-0.005-0.274 0.053-0.55 0.18-0.793 0.217 0.261 0.42 0.534 0.649 0.786 0.892 0.995 1.938 1.856 3.099 2.518 1.161 0.672 2.445 1.167 3.788 1.294-0.092 0.212-0.076 0.452-0.013 0.67 0.1 0.339 0.374 0.604 0.689 0.751 0.27 0.125 0.57 0.168 0.865 0.19-0.532 0.269-1.146 0.38-1.738 0.298-0.571-0.074-1.11-0.302-1.608-0.584-0.133 0.224-0.187 0.499-0.11 0.752 0.043 0.176 0.16 0.319 0.269 0.459-0.565-0.236-1.091-0.565-1.564-0.954-0.518-0.423-0.954-0.948-1.263-1.541-0.213-0.389-0.297-0.853-0.175-1.285-0.364 0.29-0.583 0.734-0.635 1.193-0.091 0.758 0.094 1.543 0.494 2.191 0.362 0.599 0.878 1.103 1.483 1.453 0.011 0.006 0.034 0.019 0.046 0.025 0.045 0.068 0.088 0.139 0.129 0.211-1.136-0.343-2.191-0.91-3.159-1.59-1.177-0.826-2.236-1.824-3.115-2.962-0.704-0.912-1.306-1.913-1.676-3.008-0.023-0.074-0.036-0.151-0.052-0.226-0.413 0.147-0.702 0.542-0.798 0.96-0.103 0.458-0.056 0.934 0.018 1.393 0.013 0.071 0.006 0.143-0.004 0.215-0.344-0.6-0.598-1.246-0.803-1.906-0.516-1.659-0.646-3.424-0.482-5.149 0.113-1.121 0.354-2.238 0.8-3.275 0.108-0.283 0.253-0.549 0.381-0.823-0.123 0.015-0.245 0.036-0.368 0.051-0.414 0.017-0.816 0.193-1.113 0.481-0.289 0.267-0.482 0.615-0.693 0.943-0.060 0.091-0.102 0.193-0.137 0.296-0.030 0.082-0.087 0.151-0.136 0.223-0.117 0.162-0.18 0.353-0.279 0.526-0.030-0.378 0.048-0.753 0.139-1.118 0.233-0.904 0.653-1.75 1.149-2.536 1.199-1.87 2.887-3.405 4.806-4.511 0.363-0.144 0.704-0.337 1.072-0.468 0.117-0.038 0.191-0.141 0.264-0.234 0.196-0.256 0.423-0.484 0.644-0.718-0.608-0.321-1.254-0.572-1.925-0.724-0.262-0.066-0.531-0.102-0.795-0.161-0.023-0.010-0.068-0.030-0.091-0.040 0.14-0.033 0.3-0.016 0.423-0.101 0.305-0.277 0.677-0.474 1.066-0.604 0.196-0.069 0.404-0.084 0.604-0.134-0.059-0.016-0.119-0.050-0.182-0.037-0.152 0.030-0.307 0.006-0.46-0.002-0.098-0.001-0.198 0.033-0.294 0.003 0.343-0.040 0.691-0.006 1.036-0.011 1.073 0.049 2.145 0.149 3.205 0.32 0.382 0.059 0.758 0.153 1.138 0.223-0.331-0.474-0.74-0.888-1.151-1.292-0.059-0.055-0.116-0.115-0.188-0.152-0.095-0.034-0.197-0.030-0.296-0.036 0.084-0.002 0.167-0.005 0.25-0.010-0.289-0.308-0.634-0.557-0.981-0.794-0.772-0.523-1.63-0.922-2.537-1.143-0.198-0.051-0.397-0.094-0.595-0.14zM20.41 7.544c0.156 0.142 0.316 0.284 0.433 0.462 0.221 0.315 0.289 0.701 0.417 1.057 0.185 0.52 0.576 0.968 1.075 1.207 0.448 0.213 0.954 0.107 1.43 0.161 0.279 0.025 0.542 0.127 0.813 0.19-0.154-0.113-0.307-0.23-0.431-0.376-0.376-0.398-0.568-0.935-0.967-1.314-0.279-0.272-0.627-0.455-0.974-0.622-0.351-0.16-0.703-0.316-1.062-0.458-0.247-0.096-0.482-0.221-0.733-0.308z"></path>
<path fill="#d04931" style="fill: var(--color3, #d04931)" d="M15.089 2.93c-0.42-0.316-0.882-0.567-1.343-0.816 0.434 0.057 0.858 0.167 1.282 0.271 0.714 0.178 1.417 0.399 2.107 0.655 0.71 0.268 1.398 0.591 2.074 0.933 0.112 0.057 0.226 0.112 0.344 0.156 0.034 0.079 0.067 0.158 0.101 0.237-0.515 0.223-1.087 0.442-1.412 0.928-0.149 0.236-0.188 0.518-0.266 0.782-0.731-1.234-1.737-2.296-2.888-3.147z"></path>
<path fill="#d04931" style="fill: var(--color3, #d04931)" d="M7.084 3.166c0.976 0.129 1.955 0.237 2.933 0.358 1.5 0.165 3.001 0.352 4.511 0.4 0.099 0.006 0.201 0.002 0.296 0.036 0.072 0.038 0.129 0.097 0.188 0.152 0.412 0.404 0.821 0.818 1.151 1.292-0.38-0.070-0.756-0.164-1.138-0.223-1.061-0.171-2.132-0.27-3.205-0.32-0.345 0.005-0.693-0.028-1.036 0.011l-0.009 0.002c-0.289-0.014-0.557 0.103-0.835 0.156-0.446-0.051-0.843-0.29-1.216-0.524-0.592-0.385-1.16-0.82-1.639-1.34z"></path>
<path fill="#d04931" style="fill: var(--color3, #d04931)" d="M8.907 5.83c0.263-0.066 0.542-0.105 0.81-0.043 0.264 0.059 0.533 0.094 0.795 0.161 0.671 0.152 1.318 0.403 1.925 0.724-0.221 0.234-0.448 0.462-0.644 0.718-0.073 0.092-0.147 0.195-0.264 0.234-1.295-0.072-2.601-0.009-3.874 0.247-1.771 0.334-3.467 1.016-5.020 1.924 0.858-1.117 1.976-2.011 3.19-2.715 0.965-0.55 2-0.987 3.081-1.249z"></path>
<path fill="#d04931" style="fill: var(--color3, #d04931)" d="M14.226 7.243c0.719 0.046 1.406 0.305 2.046 0.621 0.741 0.367 1.436 0.822 2.098 1.317 0.509 0.375 0.982 0.794 1.493 1.168 1.001 0.758 2.123 1.349 3.296 1.793 0.064 0.024 0.135 0.033 0.202 0.014 0.769-0.247 1.603-0.164 2.373 0.035 1.166 0.327 2.26 0.905 3.198 1.668 0.057 0.053 0.097 0.12 0.141 0.184-0.217-0.106-0.475-0.138-0.707-0.066-0.249 0.080-0.417 0.291-0.61 0.454-0.304 0.268-0.693 0.466-1.106 0.462-0.542-0.006-1.062-0.199-1.535-0.453-0.172-0.091-0.342-0.191-0.535-0.229-0.193-0.044-0.403-0.058-0.586 0.029-0.19 0.082-0.328 0.245-0.428 0.421-0.225-0.54-0.508-1.062-0.879-1.516-0.451-0.56-1.128-0.878-1.804-1.081-0.231-0.063-0.457-0.142-0.692-0.187-0.764-0.186-1.543-0.386-2.336-0.331 0.317 0.165 0.619 0.369 0.862 0.634 0.15 0.159 0.268 0.345 0.386 0.528-0.062 0.005-0.123 0.010-0.183 0.012-0.481-0.301-1.042-0.475-1.611-0.477-0.741 0-1.467 0.218-2.143 0.507 0.561-0.853 1.331-1.581 2.256-2.023-0.61-0.546-1.442-0.768-2.243-0.812-0.839-0.074-1.684 0.080-2.483 0.33 0.636-0.591 1.458-0.946 2.296-1.137 0.274-0.065 0.556-0.082 0.833-0.126-0.465-0.637-1.011-1.214-1.599-1.738z"></path>
<path fill="#d04931" style="fill: var(--color3, #d04931)" d="M8.258 8.488c0.714-0.218 1.454-0.357 2.2-0.397-1.919 1.106-3.607 2.641-4.806 4.511-0.496 0.787-0.916 1.632-1.149 2.536-0.090 0.365-0.168 0.74-0.139 1.118-0.286 0.691-0.463 1.42-0.621 2.148-0.256 1.303-0.364 2.633-0.343 3.959 0.004 0.087 0.016 0.174 0.027 0.261-0.23-0.745-0.411-1.505-0.534-2.276-0.153-0.902-0.24-1.818-0.218-2.733 0.038-0.896 0.143-1.793 0.373-2.662 0.265-1.030 0.679-2.021 1.22-2.937 0.543-0.929 1.191-1.805 1.976-2.544 0.145-0.136 0.295-0.268 0.47-0.364 0.488-0.269 1.014-0.457 1.545-0.621z"></path>
<path fill="#d04931" style="fill: var(--color3, #d04931)" d="M5.61 14.268c0.297-0.289 0.699-0.464 1.113-0.481-0.596 0.24-1.068 0.698-1.492 1.167-0.161 0.175-0.307 0.363-0.45 0.553 0.035-0.103 0.077-0.205 0.137-0.296 0.21-0.328 0.404-0.676 0.693-0.943z"></path>
<path fill="#feffff" style="fill: var(--color4, #feffff)" d="M20.41 7.544c0.251 0.087 0.486 0.212 0.733 0.308 0.359 0.142 0.711 0.298 1.062 0.458 0.348 0.167 0.695 0.35 0.974 0.622 0.399 0.379 0.591 0.916 0.967 1.314 0.125 0.146 0.277 0.263 0.431 0.376-0.271-0.063-0.534-0.166-0.813-0.19-0.476-0.054-0.982 0.052-1.43-0.161-0.499-0.239-0.889-0.687-1.075-1.207-0.127-0.355-0.196-0.741-0.417-1.057-0.117-0.178-0.276-0.32-0.433-0.462z"></path>
<path fill="#feffff" style="fill: var(--color4, #feffff)" d="M15.517 11.209c0.054-0.011 0.108-0.022 0.163-0.032-0.259 0.168-0.533 0.313-0.787 0.491-1.058 0.733-1.958 1.737-2.429 2.946-0.595 1.484-0.657 3.178-0.165 4.7 0.487 1.514 1.492 2.824 2.708 3.831 2.178 1.827 5.149 2.658 7.96 2.254 0.193-0.029 0.382-0.081 0.576-0.109-0.59 0.312-1.202 0.591-1.848 0.769-0.837 0.228-1.718 0.32-2.582 0.221-1.342-0.127-2.627-0.622-3.788-1.294-1.161-0.663-2.207-1.523-3.099-2.518-0.228-0.252-0.432-0.525-0.649-0.786-0.127 0.244-0.185 0.519-0.18 0.793 0.002 0.47 0.192 0.916 0.439 1.308-0.428-0.291-0.776-0.684-1.072-1.105-0.745-1.028-1.11-2.287-1.231-3.538-0.065-0.826-0.039-1.666 0.158-2.474 0.204-0.853 0.548-1.676 1.035-2.405 0.365-0.559 0.837-1.040 1.355-1.458 0.992-0.804 2.196-1.314 3.435-1.594z"></path>
<path fill="#feffff" style="fill: var(--color4, #feffff)" d="M17.855 11.545c0.793-0.055 1.572 0.145 2.336 0.331 0.592 0.293 1.171 0.629 1.659 1.079 0.232 0.214 0.412 0.475 0.595 0.731 0.361 0.516 0.698 1.049 0.985 1.61 0.31 0.56 0.66 1.117 1.155 1.532 0.31 0.259 0.701 0.463 1.115 0.434 0.399-0.033 0.752-0.243 1.082-0.453-0.245 0.373-0.543 0.711-0.873 1.011-0.294 0.267-0.627 0.497-0.998 0.643-0.276 0.116-0.572 0.169-0.866 0.22 0.14-0.149 0.266-0.325 0.284-0.535 0.052-0.294-0.16-0.598-0.446-0.671-0.209-0.065-0.426-0.008-0.631 0.040-0.137 0.030-0.271 0.070-0.402 0.12 0.185-0.311 0.197-0.704 0.098-1.046-0.185-0.541-0.54-1.004-0.924-1.419-0.42-0.446-0.951-0.817-1.562-0.936-0.698-0.14-1.426 0.027-2.053 0.344-0.342 0.176-0.663 0.402-0.925 0.686 0.075-0.493 0.264-0.983 0.617-1.345-0.299-0.052-0.604-0.027-0.904 0.002-0.597 0.081-1.187 0.223-1.745 0.451 0.91-0.937 2.159-1.559 3.467-1.653 0.061-0.002 0.122-0.008 0.183-0.012-0.119-0.183-0.236-0.369-0.386-0.528-0.243-0.265-0.544-0.469-0.862-0.634z"></path>
<path fill="#feffff" style="fill: var(--color4, #feffff)" d="M28.365 13.977c0.232-0.072 0.49-0.040 0.707 0.066 0.151 0.209 0.224 0.467 0.27 0.718 0.073 0.427-0.033 0.899-0.345 1.212-0.143 0.151-0.326 0.255-0.518 0.331 0.203-0.324 0.085-0.805-0.247-0.996-0.192-0.111-0.425-0.080-0.634-0.051-0.861 0.143-1.628 0.674-2.123 1.386 0.019-0.533 0.093-1.097-0.126-1.601-0.149-0.356-0.441-0.636-0.769-0.831 0.193 0.038 0.363 0.139 0.535 0.229 0.472 0.253 0.993 0.447 1.535 0.453 0.413 0.004 0.802-0.193 1.106-0.462 0.193-0.163 0.36-0.374 0.61-0.454z"></path>
<path fill="#feffff" style="fill: var(--color4, #feffff)" d="M6.334 14.845c0.126-0.094 0.249-0.193 0.375-0.286-0.446 1.037-0.687 2.154-0.8 3.275-0.164 1.725-0.034 3.49 0.482 5.149 0.205 0.659 0.459 1.306 0.803 1.906 0.369 0.894 0.829 1.756 1.415 2.529-1.072-0.876-1.968-1.96-2.66-3.158-0.821-1.41-1.359-3.002-1.445-4.637-0.036-0.784-0.024-1.575 0.11-2.349 0.044-0.255 0.087-0.518 0.213-0.747 0.382-0.655 0.905-1.223 1.507-1.682z"></path>
<path fill="#feffff" style="fill: var(--color4, #feffff)" d="M8.030 22.548c0.37 1.095 0.972 2.096 1.676 3.008 0.879 1.138 1.938 2.136 3.115 2.962 0.968 0.681 2.023 1.248 3.159 1.59 0.066 0.022 0.134 0.042 0.202 0.063-0.782-0.017-1.553-0.18-2.308-0.378-1.259-0.347-2.448-0.942-3.487-1.731-0.141 0.103-0.205 0.284-0.23 0.452-0.036 0.217-0.006 0.439 0.049 0.65-0.231-0.314-0.503-0.595-0.728-0.914-1.197-1.617-1.753-3.707-1.448-5.702z"></path>
<path fill="#feffff" style="fill: var(--color4, #feffff)" d="M13.829 26.229c0.052-0.459 0.271-0.903 0.635-1.193-0.122 0.432-0.038 0.896 0.175 1.285 0.308 0.594 0.745 1.118 1.263 1.541 0.473 0.389 0.998 0.718 1.564 0.954 0.292 0.138 0.602 0.232 0.918 0.297-0.817 0.12-1.663 0.068-2.457-0.163-0.122-0.036-0.242-0.075-0.366-0.101-0.161 0.351-0.023 0.766 0.246 1.022-0.605-0.35-1.121-0.854-1.483-1.453-0.401-0.648-0.585-1.433-0.494-2.191z"></path>
</symbol>
</defs>
</svg>
